Coordinates
version=1
nRows=6
nColumns=34
inDegrees=yes

Units are S.I. units (second, meters, Newtons, ...)
If the header above contains a line with 'inDegrees', this indicates whether rotational values are in degrees (yes) or radians (no).

endheader
time	pelvis_tilt	pelvis_list	pelvis_rotation	pelvis_tx	pelvis_ty	pelvis_tz	hip_flexion_r	hip_adduction_r	hip_rotation_r	knee_angle_r	ankle_angle_r	subtalar_angle_r	mtp_angle_r	hip_flexion_l	hip_adduction_l	hip_rotation_l	knee_angle_l	ankle_angle_l	subtalar_angle_l	mtp_angle_l	lumbar_extension	lumbar_bending	lumbar_rotation	arm_flex_r	arm_add_r	arm_rot_r	elbow_flex_r	pro_sup_r	arm_flex_l	arm_add_l	arm_rot_l	elbow_flex_l	pro_sup_l
      1.85000000	     -2.02870213	      0.46886025	     -6.28822967	     -0.06128384	      1.23838767	     -0.08334538	      0.25075904	     -0.71066733	      0.18870712	      2.10672297	      9.56826453	      3.58118067	      0.00000000	      0.52161705	     -0.79072308	      7.15968883	      4.96321952	      6.15560446	     -3.08273537	      0.00000000	    -12.48936809	      0.11390192	      2.18147219	      4.03129355	     -4.84395650	      1.50665976	     25.85451107	    102.85694539	      6.57798758	     -7.14801474	     10.22667442	     29.24802582	     96.55715242
      1.86666670	     -2.27102895	      0.44798969	     -6.38481549	     -0.06371544	      1.24150251	     -0.08387449	      0.61283065	     -0.66715026	      0.13828620	      2.18968135	      9.67669455	      3.47912422	      0.00000000	      0.61971774	     -0.77238429	      7.17496995	      4.75878398	      6.35225716	     -3.14485829	      0.00000000	    -12.77669508	      0.21459784	      2.11797071	      4.01567779	     -5.00648306	      1.45945814	     25.83149707	    102.85341592	      6.67309708	     -7.07119871	     10.20446954	     29.38365447	     96.56020036
      1.88333330	     -2.48027037	      0.42937928	     -6.43513416	     -0.06394344	      1.23860287	     -0.08393290	      0.77904504	     -0.63329937	      0.11912281	      2.11077144	      9.71910027	      3.43260119	      0.00000000	      0.64701530	     -0.78756649	      7.14746952	      4.63250723	      6.44116935	     -3.19746134	      0.00000000	    -13.02453052	      0.20524267	      2.00502450	      3.83327812	     -5.07296923	      1.44839860	     25.75745140	    102.85300107	      6.68816584	     -7.02853123	     10.20980114	     29.41622858	     96.56301381
      1.90000000	     -3.17517104	      0.38678237	     -6.46295390	     -0.06326896	      1.23891701	     -0.08403565	      1.59773020	     -0.52888274	      0.21396626	      2.37548987	      9.83178237	      2.93279966	      0.00000000	      1.27192290	     -0.88869347	      7.23301799	      4.60723668	      6.70516877	     -3.52865438	      0.00000000	    -12.82711675	      0.40348097	      2.23165619	      3.42564445	     -5.30032872	      1.29718433	     25.79923970	    102.83021085	      6.50345054	     -6.94640792	     10.18816048	     30.24804674	     96.62503081
      1.91666670	     -3.43130979	      0.37732877	     -6.54681448	     -0.06599613	      1.23619100	     -0.08287718	      1.81402371	     -0.47245782	      0.18550040	      2.22876226	      9.83262246	      2.87830770	      0.00000000	      1.33136756	     -0.97220661	      7.16345263	      4.29848987	      6.75227185	     -3.59820842	      0.00000000	    -13.05788947	      0.33649223	      2.10653293	      3.25811388	     -5.39588037	      1.26587607	     25.75476979	    102.82553480	      6.49673563	     -6.96507022	     10.18722737	     30.29595063	     96.63507895
      1.93333330	     -4.20226665	      0.43202044	     -6.75499392	     -0.06780913	      1.23951910	     -0.08392584	      2.69186984	     -0.41326883	      0.45918436	      2.13161866	      9.70236461	      2.65372173	      0.00000000	      1.95972597	     -1.06799169	      7.14109310	      3.89849524	      6.38614745	     -3.90370763	      0.00000000	    -12.66892335	      0.31166858	      2.08061473	      2.91528607	     -5.52930074	      1.00633625	     25.95084530	    102.77429524	      6.15197726	     -7.04256725	     10.15941505	     31.01271340	     96.77478093
